<svg xmlns="http://www.w3.org/2000/svg" viewBox="0 0 32 32" aria-hidden="true" role="presentation" focusable="false" style="display: block; height: 24px; width: 24px; fill: currentcolor;"><path d="M25 1a3 3 0 0 1 3 2.82V26a3 3 0 0 1-2.82 3H25v2h-2v-2H9v2H7v-2a3 3 0 0 1-3-2.82V4a3 3 0 0 1 2.82-3H25zm1 20H6v5a1 1 0 0 0 .88 1H25a1 1 0 0 0 1-.88V21zm-10 2a1 1 0 1 1 0 2 1 1 0 0 1 0-2zm9-20h-8v16h9V4a1 1 0 0 0-.88-1H25zM15 3H7a1 1 0 0 0-1 .88V19h9V3zm-3 8a1 1 0 1 1 0 2 1 1 0 0 1 0-2zm8 0a1 1 0 1 1 0 2 1 1 0 0 1 0-2z"></path></svg>