<svg xmlns="http://www.w3.org/2000/svg" viewBox="0 0 32 32" aria-hidden="true" role="presentation" focusable="false" style="display: block; height: 24px; width: 24px; fill: currentcolor;"><path d="M24 1a5 5 0 0 1 5 4.78V26a5 5 0 0 1-4.78 5H19v-2h5a3 3 0 0 0 3-2.82V6a3 3 0 0 0-2.82-3H8a3 3 0 0 0-3 2.82V26a3 3 0 0 0 2.82 3H15v-8h-2a2 2 0 0 1-2-1.85V13a2 2 0 0 1 1.85-2H19a2 2 0 0 1 2 1.85V19a2 2 0 0 1-1.85 2H17v8a2 2 0 0 1-1.85 2H8a5 5 0 0 1-5-4.78V6a5 5 0 0 1 4.78-5H8zm-5 12h-6v6h2v-4h2v4h2z"></path></svg>